<mxfile host="app.diagrams.net" agent="Mozilla/5.0 (Windows NT 10.0; Win64; x64) AppleWebKit/537.36 (KHTML, like Gecko) Chrome/134.0.0.0 Safari/537.36 Edg/134.0.0.0/8mqEzXuL-46" version="26.2.6">
  <diagram name="Methodology Flowchart" id="rhZHQnXAaECDivnwC1WS">
    <mxGraphModel dx="2213" dy="1191" grid="1" gridSize="10" guides="1" tooltips="1" connect="1" arrows="1" fold="1" page="1" pageScale="1" pageWidth="1169" pageHeight="827" math="0" shadow="0">
      <root>
        <mxCell id="0" />
        <mxCell id="1" parent="0" />
        <mxCell id="2LcSdn4sHCrI2FnrcDrc-1" value="" style="rounded=0;whiteSpace=wrap;html=1;" vertex="1" parent="1">
          <mxGeometry x="20" y="40" width="690" height="810" as="geometry" />
        </mxCell>
        <mxCell id="wWo257uREUizAbrho569-2" value="Select 5 IT Firms" style="rounded=1;whiteSpace=wrap;html=1;fillColor=#ffffff;strokeColor=#000000;fontStyle=1;fontSize=14;" parent="1" vertex="1">
          <mxGeometry x="250" y="60" width="200" height="60" as="geometry" />
        </mxCell>
        <mxCell id="wWo257uREUizAbrho569-3" value="Recruit 200 Employees&lt;br&gt;&lt;font style=&quot;font-size: 12px; font-weight: normal;&quot;&gt;(Developers, Testers, Project Managers, Team Leads)&lt;br&gt;(Balanced gender distribution)&lt;/font&gt;" style="rounded=1;whiteSpace=wrap;html=1;fillColor=#ffffff;strokeColor=#000000;fontStyle=1;fontSize=14;" parent="1" vertex="1">
          <mxGeometry x="200" y="160" width="300" height="80" as="geometry" />
        </mxCell>
        <mxCell id="wWo257uREUizAbrho569-4" value="Cross-sectional: Survey + Operational Data (200)&lt;br&gt;&lt;font style=&quot;font-size: 12px; font-weight: normal;&quot;&gt;Burnout: 10-50&lt;br&gt;Job Satisfaction: 1-7&lt;br&gt;Operational Efficiency: Error rate, delivery time&lt;br&gt;Retention Intent: 1-5&lt;/font&gt;" style="rounded=1;whiteSpace=wrap;html=1;fillColor=#ffffff;strokeColor=#000000;fontStyle=1;fontSize=14;" parent="1" vertex="1">
          <mxGeometry x="50" y="290" width="300" height="120" as="geometry" />
        </mxCell>
        <mxCell id="wWo257uREUizAbrho569-5" value="Longitudinal: Select 100, Collect at 0, 3, 6 Months&lt;br&gt;&lt;font style=&quot;font-size: 12px; font-weight: normal;&quot;&gt;Burnout: 10-50&lt;br&gt;Job Satisfaction: 1-7&lt;br&gt;Operational Efficiency: Error rate, delivery time&lt;br&gt;Retention Intent: 1-5&lt;/font&gt;" style="rounded=1;whiteSpace=wrap;html=1;fillColor=#ffffff;strokeColor=#000000;fontStyle=1;fontSize=14;" parent="1" vertex="1">
          <mxGeometry x="370" y="290" width="300" height="120" as="geometry" />
        </mxCell>
        <mxCell id="wWo257uREUizAbrho569-6" value="Clean Data&lt;br&gt;&lt;font style=&quot;font-size: 12px; font-weight: normal;&quot;&gt;(Remove incomplete or extreme values)&lt;/font&gt;" style="rounded=1;whiteSpace=wrap;html=1;fillColor=#ffffff;strokeColor=#000000;fontStyle=1;fontSize=14;" parent="1" vertex="1">
          <mxGeometry x="100" y="440" width="200" height="60" as="geometry" />
        </mxCell>
        <mxCell id="wWo257uREUizAbrho569-7" value="Clean Data&lt;br&gt;&lt;font style=&quot;font-size: 12px; font-weight: normal;&quot;&gt;(Remove incomplete or extreme values)&lt;/font&gt;" style="rounded=1;whiteSpace=wrap;html=1;fillColor=#ffffff;strokeColor=#000000;fontStyle=1;fontSize=14;" parent="1" vertex="1">
          <mxGeometry x="420" y="440" width="200" height="60" as="geometry" />
        </mxCell>
        <mxCell id="wWo257uREUizAbrho569-8" value="Combine into Dataset" style="rounded=1;whiteSpace=wrap;html=1;fillColor=#ffffff;strokeColor=#000000;fontStyle=1;fontSize=14;" parent="1" vertex="1">
          <mxGeometry x="250" y="560" width="200" height="60" as="geometry" />
        </mxCell>
        <mxCell id="wWo257uREUizAbrho569-9" value="Statistical Analysis&lt;br&gt;&lt;font style=&quot;font-size: 12px; font-weight: normal;&quot;&gt;(Regression, SEM)&lt;/font&gt;" style="rounded=1;whiteSpace=wrap;html=1;fillColor=#ffffff;strokeColor=#000000;fontStyle=1;fontSize=14;" parent="1" vertex="1">
          <mxGeometry x="100" y="670" width="200" height="60" as="geometry" />
        </mxCell>
        <mxCell id="wWo257uREUizAbrho569-10" value="Machine Learning&lt;br&gt;&lt;font style=&quot;font-size: 12px; font-weight: normal;&quot;&gt;(Random Forest, Gradient Boosting)&lt;/font&gt;" style="rounded=1;whiteSpace=wrap;html=1;fillColor=#ffffff;strokeColor=#000000;fontStyle=1;fontSize=14;" parent="1" vertex="1">
          <mxGeometry x="400" y="670" width="200" height="60" as="geometry" />
        </mxCell>
        <mxCell id="wWo257uREUizAbrho569-11" value="Combine Results" style="rounded=1;whiteSpace=wrap;html=1;fillColor=#ffffff;strokeColor=#000000;fontStyle=1;fontSize=14;" parent="1" vertex="1">
          <mxGeometry x="250" y="770" width="200" height="60" as="geometry" />
        </mxCell>
        <mxCell id="wWo257uREUizAbrho569-13" value="" style="endArrow=classic;html=1;rounded=0;exitX=0.5;exitY=1;exitDx=0;exitDy=0;entryX=0.5;entryY=0;entryDx=0;entryDy=0;" parent="1" source="wWo257uREUizAbrho569-2" target="wWo257uREUizAbrho569-3" edge="1">
          <mxGeometry width="50" height="50" relative="1" as="geometry">
            <mxPoint x="350" y="130" as="sourcePoint" />
            <mxPoint x="350" y="150" as="targetPoint" />
          </mxGeometry>
        </mxCell>
        <mxCell id="wWo257uREUizAbrho569-14" value="" style="endArrow=classic;html=1;rounded=0;exitX=0.5;exitY=1;exitDx=0;exitDy=0;entryX=0.5;entryY=0;entryDx=0;entryDy=0;edgeStyle=orthogonalEdgeStyle;" parent="1" source="wWo257uREUizAbrho569-3" target="wWo257uREUizAbrho569-4" edge="1">
          <mxGeometry width="50" height="50" relative="1" as="geometry">
            <mxPoint x="350" y="250" as="sourcePoint" />
            <mxPoint x="200" y="290" as="targetPoint" />
          </mxGeometry>
        </mxCell>
        <mxCell id="wWo257uREUizAbrho569-15" value="" style="endArrow=classic;html=1;rounded=0;exitX=0.5;exitY=1;exitDx=0;exitDy=0;entryX=0.5;entryY=0;entryDx=0;entryDy=0;edgeStyle=orthogonalEdgeStyle;" parent="1" source="wWo257uREUizAbrho569-3" target="wWo257uREUizAbrho569-5" edge="1">
          <mxGeometry width="50" height="50" relative="1" as="geometry">
            <mxPoint x="350" y="250" as="sourcePoint" />
            <mxPoint x="520" y="290" as="targetPoint" />
          </mxGeometry>
        </mxCell>
        <mxCell id="wWo257uREUizAbrho569-16" value="" style="endArrow=classic;html=1;rounded=0;exitX=0.5;exitY=1;exitDx=0;exitDy=0;entryX=0.5;entryY=0;entryDx=0;entryDy=0;" parent="1" source="wWo257uREUizAbrho569-4" target="wWo257uREUizAbrho569-6" edge="1">
          <mxGeometry width="50" height="50" relative="1" as="geometry">
            <mxPoint x="200" y="420" as="sourcePoint" />
            <mxPoint x="200" y="440" as="targetPoint" />
          </mxGeometry>
        </mxCell>
        <mxCell id="wWo257uREUizAbrho569-17" value="" style="endArrow=classic;html=1;rounded=0;exitX=0.5;exitY=1;exitDx=0;exitDy=0;entryX=0.5;entryY=0;entryDx=0;entryDy=0;" parent="1" source="wWo257uREUizAbrho569-5" target="wWo257uREUizAbrho569-7" edge="1">
          <mxGeometry width="50" height="50" relative="1" as="geometry">
            <mxPoint x="520" y="420" as="sourcePoint" />
            <mxPoint x="520" y="440" as="targetPoint" />
          </mxGeometry>
        </mxCell>
        <mxCell id="wWo257uREUizAbrho569-18" value="" style="endArrow=classic;html=1;rounded=0;exitX=0.5;exitY=1;exitDx=0;exitDy=0;entryX=0.5;entryY=0;entryDx=0;entryDy=0;edgeStyle=orthogonalEdgeStyle;" parent="1" source="wWo257uREUizAbrho569-6" target="wWo257uREUizAbrho569-8" edge="1">
          <mxGeometry width="50" height="50" relative="1" as="geometry">
            <mxPoint x="200" y="500" as="sourcePoint" />
            <mxPoint x="350" y="560" as="targetPoint" />
          </mxGeometry>
        </mxCell>
        <mxCell id="wWo257uREUizAbrho569-19" value="" style="endArrow=classic;html=1;rounded=0;exitX=0.5;exitY=1;exitDx=0;exitDy=0;entryX=0.5;entryY=0;entryDx=0;entryDy=0;edgeStyle=orthogonalEdgeStyle;" parent="1" source="wWo257uREUizAbrho569-7" target="wWo257uREUizAbrho569-8" edge="1">
          <mxGeometry width="50" height="50" relative="1" as="geometry">
            <mxPoint x="520" y="500" as="sourcePoint" />
            <mxPoint x="350" y="560" as="targetPoint" />
          </mxGeometry>
        </mxCell>
        <mxCell id="wWo257uREUizAbrho569-20" value="" style="endArrow=classic;html=1;rounded=0;exitX=0.5;exitY=1;exitDx=0;exitDy=0;entryX=0.5;entryY=0;entryDx=0;entryDy=0;edgeStyle=orthogonalEdgeStyle;" parent="1" source="wWo257uREUizAbrho569-8" target="wWo257uREUizAbrho569-9" edge="1">
          <mxGeometry width="50" height="50" relative="1" as="geometry">
            <mxPoint x="350" y="620" as="sourcePoint" />
            <mxPoint x="200" y="670" as="targetPoint" />
          </mxGeometry>
        </mxCell>
        <mxCell id="wWo257uREUizAbrho569-21" value="" style="endArrow=classic;html=1;rounded=0;exitX=0.5;exitY=1;exitDx=0;exitDy=0;entryX=0.5;entryY=0;entryDx=0;entryDy=0;edgeStyle=orthogonalEdgeStyle;" parent="1" source="wWo257uREUizAbrho569-8" target="wWo257uREUizAbrho569-10" edge="1">
          <mxGeometry width="50" height="50" relative="1" as="geometry">
            <mxPoint x="350" y="620" as="sourcePoint" />
            <mxPoint x="500" y="670" as="targetPoint" />
          </mxGeometry>
        </mxCell>
        <mxCell id="wWo257uREUizAbrho569-22" value="" style="endArrow=classic;html=1;rounded=0;exitX=0.5;exitY=1;exitDx=0;exitDy=0;entryX=0.5;entryY=0;entryDx=0;entryDy=0;edgeStyle=orthogonalEdgeStyle;" parent="1" source="wWo257uREUizAbrho569-9" target="wWo257uREUizAbrho569-11" edge="1">
          <mxGeometry width="50" height="50" relative="1" as="geometry">
            <mxPoint x="200" y="730" as="sourcePoint" />
            <mxPoint x="350" y="770" as="targetPoint" />
          </mxGeometry>
        </mxCell>
        <mxCell id="wWo257uREUizAbrho569-23" value="" style="endArrow=classic;html=1;rounded=0;exitX=0.5;exitY=1;exitDx=0;exitDy=0;entryX=0.5;entryY=0;entryDx=0;entryDy=0;edgeStyle=orthogonalEdgeStyle;" parent="1" source="wWo257uREUizAbrho569-10" target="wWo257uREUizAbrho569-11" edge="1">
          <mxGeometry width="50" height="50" relative="1" as="geometry">
            <mxPoint x="500" y="730" as="sourcePoint" />
            <mxPoint x="350" y="770" as="targetPoint" />
          </mxGeometry>
        </mxCell>
      </root>
    </mxGraphModel>
  </diagram>
</mxfile>
